#!OML:ASF E:/inclinewalkrobotboard/Project1/Captureday1/Session1/subject1.ASF
:FULLY-SPECIFIED
:DEGREES
313
root 0 0 0 15.935231305832918 42.241579092753014 -0.6010012732605112
lowerback -10.875263695709073 -4.503842347270021 -4.489116060015113
upperback -11.724798656706163 -5.596691401052608 8.92668399559592
thorax -5.424525643675956 -2.110598345911389 12.166889380332723
lowerneck -3.0039192798994323 -9.821047780186207 -8.462633434731549
upperneck 32.783502860702356 -12.316364225651197 0.15759408928958596
head 11.906495203205553 -6.377407623779341 -0.14830252790474718
rclavicle -4.522728966629022E-15 3.9756359609392785E-15
rhumerus 162.69658122549518 5.778946539313459 -194.19224652798
rradius 16.960738764960784
rwrist 82.8317734164579
rhand -17.118134711112663 7.892092419596754
rfingers 7.125020000000012
rthumb 9.075976041700413 -22.01007110890494
lclavicle 1.697619318695911E-15 -4.840172562096783E-15
lhumerus 85.24788746458557 32.662923533955116 16.522223350532105
lradius 50.24370197346828
lwrist -17.375551145614477
lhand -8.195798600062108 11.797509141406692
lfingers 7.125019999999987
lthumb 17.677509963625784 40.690623276214055
rfemur 157.64159880968316 -213.22620767325975 -185.19650969935287
rtibia 62.22107866309226
rfoot -54.681128686024465 -23.912892823707487
rtoes 60.97553773865852
lfemur -88.6592679341389 22.793723136040473 -51.96898040515708
ltibia 75.78570784512753
lfoot -15.883970021690205 32.74262619351444
ltoes 10.45577642135691
314
root 0 0 0 15.905707873724065 42.26071042452128 -0.5853805121697491
lowerback -10.860948478231798 -4.504722952228002 -4.491791111407402
upperback -11.717685946662096 -5.597482185936394 8.924674430419936
thorax -5.425410278423263 -2.1103681854443046 12.165937103285255
lowerneck -3.003480928796357 -9.820690335177302 -8.46047374309258
upperneck 32.784143907879084 -12.314674082180424 0.15247756222476827
head 11.906323764187846 -6.377042567321189 -0.15013685971954072
rclavicle -4.5274155235898525E-15 3.996798300601115E-15
rhumerus 162.61198530351453 5.804789879087753 -194.24697885929592
rradius 16.913661735454934
rwrist 82.9039430567413
rhand -17.118109730215693 7.8964090796099375
rfingers 7.125020000000012
rthumb 9.075838369643886 -22.00537313826426
lclavicle 1.7318488474732428E-15 -4.781598449700554E-15
lhumerus 85.23883680038762 32.68168075970816 16.517653892389482
lradius 50.168055673136735
lwrist -17.414187487295898
lhand -8.251670932976253 11.825713262721488
lfingers 7.125019999999987
lthumb 17.623811147454067 40.727759196463154
rfemur 157.54323846648074 -213.14191134704532 -185.13621332437253
rtibia 62.07474530952577
rfoot -54.98598628870792 -23.801060614371657
rtoes 60.98558432801491
lfemur -88.67437706195895 22.78905743858952 -52.024057344424705
ltibia 75.77410246889198
lfoot -15.684643286942713 32.740868760626476
ltoes 10.387599611587826
315
root 0 0 0 15.876073430113482 42.278790886075825 -0.5696583279631753
lowerback -10.846763202612088 -4.505680369049093 -4.494525035880447
upperback -11.710636915190975 -5.598388963400327 8.922691283141244
thorax -5.426299538131444 -2.1101932583118677 12.165058136134828
lowerneck -3.003059702232555 -9.820308852058723 -8.458386244548501
upperneck 32.78466013586759 -12.312988954592347 0.14762929894835564
head 11.906118848879656 -6.376664832457222 -0.15188015468850247
rclavicle -4.5306029663450025E-15 4.0189746001526926E-15
rhumerus 162.52965708011686 5.832865418005543 -194.3022630272296
rradius 16.87209955457307
rwrist 82.9653008053897
rhand -17.118291325115468 7.901607932564753
rfingers 7.125020000000012
rthumb 9.075540271043497 -21.999671930051072
lclavicle 1.7669602172457203E-15 -4.724860253174191E-15
lhumerus 85.22813906078981 32.6983827919546 16.51358162829611
lradius 50.09777661330254
lwrist -17.449854594842684
lhand -8.302450200344508 11.852400829795712
lfingers 7.125019999999987
lthumb 17.575003533101185 40.762577290810796
rfemur 157.45463239236645 -213.06575515711907 -185.08059015713712
rtibia 61.934488108867626
rfoot -55.28654200740862 -23.688058388362343
rtoes 60.98691616043594
lfemur -88.68957784897466 22.7844313294263 -52.08081485364951
ltibia 75.7607349308405
lfoot -15.48060309409459 32.73970455940902
ltoes 10.317788879207098
316
root 0 0 0 15.846562954481598 42.29574653169922 -0.5539443635213708
lowerback -10.832783952538428 -4.506684205465694 -4.497297220978835
upperback -11.703685050463804 -5.599371520171989 8.920725540179694
thorax -5.427185344554503 -2.110056928690116 12.164230350587747
lowerneck -3.002674097001062 -9.819902475427476 -8.456358531126364
upperneck 32.78506520111052 -12.311312747601498 0.143034857296215
head 11.905887625813087 -6.376274823292264 -0.15353689008740234
rclavicle -4.5324913673009465E-15 4.041832964230359E-15
rhumerus 162.44944130497197 5.862475509199243 -194.35796877216183
rradius 16.834794005343216
rwrist 83.01816241786457
rhand -17.118612097654204 7.90742219825173
rfingers 7.125020000000012
rthumb 9.075137469615736 -21.993266406223018
lclavicle 1.8026980814288447E-15 -4.6697129836324435E-15
lhumerus 85.21629136257043 32.71354641969377 16.509950759471483
lradius 50.0317937640956
lwrist -17.48308666355409
lhand -8.34910084933848 11.877892634384327
lfingers 7.125019999999987
lthumb 17.530160934438403 40.795556190459074
rfemur 157.37401216189966 -212.9961941039892 -185.02889505628198
rtibia 61.7990680650084
rfoot -55.583305062762214 -23.57427645616086
rtoes 60.981464470685395
lfemur -88.70476786631443 22.779891254445666 -52.13827188514777
ltibia 75.74615556573563
lfoot -15.27465771155671 32.73897579511924
ltoes 10.247360330263042
317
root 0 0 0 15.817317602256407 42.31157437012902 -0.5383065460582888
lowerback -10.819047030098833 -4.507712135915257 -4.500092519000247
upperback -11.696845405923678 -5.600399520665724 8.918768990267054
thorax -5.42806254255439 -2.1099461340432484 12.163435224649518
lowerneck -3.0023359131876006 -9.819471268382328 -8.454378324178663
upperneck 32.7853734257219 -12.309646914810191 0.13867208123779262
head 11.905636220075177 -6.375873041987823 -0.15511438454048565
rclavicle -4.533239533324318E-15 4.065121147885865E-15
rhumerus 162.3711682325192 5.893061496036374 -194.41394301378767
rradius 16.80072636184062
rwrist 83.0644534131429
rhand -17.119020211012426 7.913643749039831
rfingers 7.125020000000012
rthumb 9.074672474174662 -21.986390534312708
lclavicle 1.8389030130667747E-15 -4.6158967899403106E-15
lhumerus 85.20369647829483 32.727590954268294 16.506691298530317
lradius 49.9691289699432
lwrist -17.51436689145514
lhand -8.392476987260412 11.902489322576875
lfingers 7.125019999999986
lthumb 17.488463035336512 40.82713471805465
rfemur 157.29980432949753 -212.9318465872579 -184.98043524646715
rtibia 61.66725569516611
rfoot -55.87712936945864 -23.45987329571183
rtoes 60.970802225921446
lfemur -88.71987444786029 22.775474327551315 -52.19570557913551
ltibia 75.73079071212267
lfoot -15.068813696748263 32.738546679014775
ltoes 10.177035516547999
318
root 0 0 0 15.78840131967256 42.32632299888682 -0.5227771658724052
lowerback -10.805556493546607 -4.5087483299984505 -4.502901040261558
upperback -11.690118022182428 -5.6014506218653946 8.91681352544455
thorax -5.42892844439746 -2.109850597349464 12.16265704212691
lowerneck -3.0020519756561184 -9.819015687943573 -8.45243316924086
upperneck 32.785599050902285 -12.30799060783524 0.13451315719525603
head 11.905369710963866 -6.375459861554584 -0.1566220657682207
rclavicle -4.532974770425196E-15 4.0886593521826974E-15
rhumerus 162.29463979919066 5.924194082910333 -194.47005511451093
rradius 16.769066010076124
rwrist 83.10577632231437
rhand -17.119477730126153 7.920114844690345
rfingers 7.125020000000012
rthumb 9.07417585534256 -21.979222586902523
lclavicle 1.875492852172057E-15 -4.5631372870300475E-15
lhumerus 85.19068757405259 32.74086019833946 16.503723000871798
lradius 49.90888590741213
lwrist -17.544131977677395
lhand -8.433335433175998 11.926474914594353
lfingers 7.125019999999986
lthumb 17.44918288972935 40.85771824485265
rfemur 157.23060703436641 -212.8714742622679 -184.93456692622487
rtibia 61.53782924989048
rfoot -56.16916757097551 -23.344805407950005
rtoes 60.956196296947525
lfemur -88.73485219213595 22.77120918869865 -52.25261044472268
ltibia 75.71496506734088
lfoot -14.864393370795765 32.738298215740315
ltoes 10.107285228278688
